<?xml version="1.0" standalone="no"?>
<!DOCTYPE svg PUBLIC "-//W3C//DTD SVG 20010904//EN"
 "http://www.w3.org/TR/2001/REC-SVG-20010904/DTD/svg10.dtd">
<svg version="1.0" xmlns="http://www.w3.org/2000/svg"
 width="512.000000pt" height="512.000000pt" viewBox="0 0 512.000000 512.000000"
 preserveAspectRatio="xMidYMid meet">

<g transform="translate(0.000000,512.000000) scale(0.100000,-0.100000)"
fill="#000000" stroke="none">
<path d="M2360 4309 c-613 -70 -1160 -473 -1410 -1039 -266 -604 -171 -1307
246 -1821 73 -90 224 -234 314 -301 714 -526 1692 -448 2306 183 285 294 449
641 493 1041 66 598 -188 1199 -664 1573 -360 282 -829 415 -1285 364z m492
-339 c280 -59 518 -189 724 -394 210 -210 342 -458 401 -752 24 -124 24 -404
0 -528 -59 -294 -191 -541 -401 -752 -211 -210 -458 -342 -752 -401 -136 -27
-414 -24 -554 6 -281 60 -520 190 -726 396 -209 209 -342 457 -401 751 -24
124 -24 404 0 528 59 294 191 541 401 752 238 237 521 374 866 418 83 10 347
-4 442 -24z"/>
<path d="M2952 3640 c-47 -29 -72 -76 -72 -135 0 -68 18 -93 143 -205 l107
-95 -314 -5 c-298 -5 -316 -6 -342 -26 -53 -39 -69 -71 -69 -134 0 -63 16 -95
69 -134 26 -20 42 -21 343 -24 l316 -3 -121 -122 c-129 -131 -142 -155 -127
-234 9 -49 69 -109 118 -118 88 -17 91 -14 375 268 145 144 270 274 278 289
18 35 18 101 0 136 -18 32 -522 535 -553 551 -35 18 -114 13 -151 -9z"/>
<path d="M2015 2706 c-16 -8 -148 -132 -292 -277 -364 -368 -365 -312 11 -688
l275 -275 61 -4 c52 -4 66 -1 99 21 64 43 88 126 58 200 -8 18 -62 75 -125
132 l-112 100 314 5 c298 5 316 6 342 26 53 39 69 71 69 134 0 63 -16 95 -69
134 -26 20 -42 21 -343 24 l-316 3 121 122 c97 99 122 129 127 160 25 132
-101 237 -220 183z"/>
</g>
</svg>
